<svg id="Layer_1" data-name="Layer 1" xmlns="http://www.w3.org/2000/svg" viewBox="0 0 48 48"><defs><style>.cls-1{fill:#8892bf;}.cls-2{fill:#4f5b94;}.cls-3{fill:#fff;}.cls-4{fill:#666;}.cls-5{fill:#25323c;}</style></defs><title>api_tokens</title><path class="cls-1" d="M12.16,14.73H36.88l10.63,6.16a23.85,23.85,0,1,0-29.76,26L7.27,28.55Z"/><path class="cls-2" d="M31.13,46.57A11.59,11.59,0,1,1,46.57,31.13a23.76,23.76,0,0,0,.94-10.24L36.88,14.73H12.16L7.27,28.55,17.75,46.91a24,24,0,0,0,13.38-.34Z"/><path class="cls-3" d="M20.53,28.49H17.26l-1-3.07H11.56l-.94,3.07H7.36l4.86-13.78h3.57ZM15.62,23l-1.44-4.63A6.45,6.45,0,0,1,14,17.17h-.07a5.11,5.11,0,0,1-.24,1.2L12.2,23Z"/><path class="cls-3" d="M25.21,23.74v4.75h-3V14.71h4.71c3.36,0,5.05,1.46,5.05,4.39a4.29,4.29,0,0,1-1.45,3.36,5.61,5.61,0,0,1-3.87,1.28Zm0-6.65v4.3h1.18c1.6,0,2.4-.72,2.4-2.17s-.8-2.13-2.4-2.13Z"/><path class="cls-3" d="M36.92,28.49h-3V14.71h3Z"/><circle class="cls-4" cx="36.26" cy="36.13" r="9.63"/><circle class="cls-5" cx="36.25" cy="32.38" r="3.36"/><rect class="cls-5" x="34.52" y="29.4" width="3.33" height="14.08" rx="1.6"/></svg>