<svg id="Layer_1" data-name="Layer 1" xmlns="http://www.w3.org/2000/svg" viewBox="0 0 48 48"><defs><style>.cls-1{fill:#8892bf;}.cls-2{fill:#25323c;}.cls-3{fill:#32415b;}.cls-4{fill:#bcbcbc;}.cls-5{fill:#336792;}</style></defs><circle class="cls-1" cx="36.31" cy="36.37" r="9.71"/><path class="cls-2" d="M24.66,36.29a11.94,11.94,0,0,1,.43-3.13H8.74a4.89,4.89,0,0,1-4.9-4.89V19.73a4.89,4.89,0,0,1,4.9-4.89H39.3a4.89,4.89,0,0,1,4.89,4.89v8a11.6,11.6,0,0,1,2.59,3.53A23.92,23.92,0,1,0,31.3,46.78,11.61,11.61,0,0,1,24.66,36.29Z"/><path class="cls-3" d="M22.71,22.25a1.37,1.37,0,0,0-1.15.53,2.37,2.37,0,0,0-.41,1.48c0,1.33.52,2,1.57,2s1.49-.68,1.49-2.06S23.71,22.25,22.71,22.25Z"/><path class="cls-3" d="M39.05,17.14H9a3,3,0,0,0-3,3v7.8a3,3,0,0,0,3,3H26a11.56,11.56,0,0,1,2.43-3.12h-.75v-7h2.08v1.09h0A2.52,2.52,0,0,1,32,20.61a1.94,1.94,0,0,1,2,1.3,2.46,2.46,0,0,1,2.26-1.3c1.47,0,2.2.93,2.2,2.8v1.44A11.61,11.61,0,0,1,42,26.17V20.1A3,3,0,0,0,39.05,17.14ZM11.15,27.59a1.29,1.29,0,0,1-.9.32,1.2,1.2,0,0,1-.86-.33,1.09,1.09,0,0,1-.34-.8,1,1,0,0,1,.36-.8,1.24,1.24,0,0,1,.87-.32,1.21,1.21,0,0,1,.87.32,1.12,1.12,0,0,1,0,1.61Zm6.93-4.83a2.29,2.29,0,0,0-1.45-.51,1.88,1.88,0,0,0-1.42.54,2.05,2.05,0,0,0-.53,1.49,2,2,0,0,0,.51,1.46,1.79,1.79,0,0,0,1.37.52,2.73,2.73,0,0,0,1.52-.5v1.72a4,4,0,0,1-2,.43,3.32,3.32,0,0,1-3.48-3.48,3.8,3.8,0,0,1,1-2.8,3.76,3.76,0,0,1,2.76-1,3.41,3.41,0,0,1,1.72.33Zm7.27,4.14a3.62,3.62,0,0,1-2.7,1A3.35,3.35,0,0,1,19,24.28a3.55,3.55,0,0,1,1-2.69,3.67,3.67,0,0,1,2.7-1,3.33,3.33,0,0,1,3.59,3.55A3.77,3.77,0,0,1,25.35,26.9Z"/><path class="cls-3" d="M35.23,22.25a1,1,0,0,0-.84.46,1.93,1.93,0,0,0-.32,1.13v1a12.47,12.47,0,0,1,2.22-.21h0v-.89C36.31,22.76,36,22.25,35.23,22.25Z"/><path class="cls-3" d="M30.93,22.25a1,1,0,0,0-.85.44,1.9,1.9,0,0,0-.32,1.18v2.79A11.27,11.27,0,0,1,32,25.49V23.73C32,22.75,31.64,22.25,30.93,22.25Z"/><path class="cls-4" d="M10.28,25.66a1.24,1.24,0,0,0-.87.32,1,1,0,0,0-.36.8,1.09,1.09,0,0,0,.34.8,1.2,1.2,0,0,0,.86.33,1.29,1.29,0,0,0,.9-.32,1.12,1.12,0,0,0,0-1.61A1.21,1.21,0,0,0,10.28,25.66Z"/><path class="cls-4" d="M13.6,21.63a3.8,3.8,0,0,0-1,2.8,3.32,3.32,0,0,0,3.48,3.48,4,4,0,0,0,2-.43V25.76a2.73,2.73,0,0,1-1.52.5,1.79,1.79,0,0,1-1.37-.52,2,2,0,0,1-.51-1.46,2.05,2.05,0,0,1,.53-1.49,1.88,1.88,0,0,1,1.42-.54,2.29,2.29,0,0,1,1.45.51V20.94a3.41,3.41,0,0,0-1.72-.33A3.76,3.76,0,0,0,13.6,21.63Z"/><path class="cls-4" d="M22.74,20.61a3.67,3.67,0,0,0-2.7,1,3.55,3.55,0,0,0-1,2.69,3.75,3.75,0,0,0,6.31,2.62,3.77,3.77,0,0,0,1-2.74,3.33,3.33,0,0,0-3.59-3.55Zm0,5.65c-1,0-1.57-.67-1.57-2a2.37,2.37,0,0,1,.41-1.48,1.37,1.37,0,0,1,1.15-.53q1.5,0,1.5,1.95C24.21,25.58,23.71,26.26,22.72,26.26Z"/><path class="cls-4" d="M29.76,23.87a1.9,1.9,0,0,1,.32-1.18,1,1,0,0,1,.85-.44c.71,0,1.06.5,1.06,1.48v1.76a11.33,11.33,0,0,1,2.08-.62v-1a1.93,1.93,0,0,1,.32-1.13,1,1,0,0,1,.84-.46c.72,0,1.08.51,1.08,1.52v.89a11.89,11.89,0,0,1,2.07.19V23.41c0-1.87-.73-2.8-2.2-2.8a2.46,2.46,0,0,0-2.26,1.3,1.94,1.94,0,0,0-2-1.3,2.52,2.52,0,0,0-2.17,1.26h0V20.78H27.68v7h.75a12.54,12.54,0,0,1,1.33-1.08Z"/><path class="cls-5" d="M39.3,14.84H8.74a4.89,4.89,0,0,0-4.89,4.89v8.54a4.89,4.89,0,0,0,4.89,4.89H25.1A11.46,11.46,0,0,1,25.49,32,9.6,9.6,0,0,1,26,30.86H9a3,3,0,0,1-3-3V20.1a3,3,0,0,1,3-3H39.05a3,3,0,0,1,3,3v6.07a9.82,9.82,0,0,1,1.1.71,10.21,10.21,0,0,1,1.08.89v-8A4.89,4.89,0,0,0,39.3,14.84Z"/><path class="cls-2" d="M42.33,38.14H30.19a.9.9,0,0,0-.9.9v2.24a.9.9,0,0,0,.9.9H42.33a.9.9,0,0,0,.9-.9V39A.9.9,0,0,0,42.33,38.14Zm-11.21,3a.94.94,0,1,1,.94-.94A.95.95,0,0,1,31.12,41.1Zm2.33,0a.94.94,0,1,1,.94-.94A.94.94,0,0,1,33.45,41.1Zm7.4,0H36.73a.94.94,0,0,1,0-1.88h4.12a.94.94,0,0,1,0,1.88Z"/><rect class="cls-2" x="38.13" y="34.14" width="0.68" height="4.19"/><circle class="cls-2" cx="38.48" cy="33.14" r="1.33"/><path class="cls-2" d="M40.74,35.5l-.81-.7a2.19,2.19,0,0,0,0-3.1l.75-.77A3.23,3.23,0,0,1,40.74,35.5Z"/><path class="cls-2" d="M42,36.62l-.76-.76a3.69,3.69,0,0,0,1.24-2.65,4.35,4.35,0,0,0-1.23-2.74l.74-.78a5.36,5.36,0,0,1,1.57,3.51A4.7,4.7,0,0,1,42,36.62Z"/><path class="cls-2" d="M36.24,35.34a3.24,3.24,0,0,1,0-4.57l.81.7a2.19,2.19,0,0,0,0,3.1Z"/><path class="cls-2" d="M35,36.58a5.41,5.41,0,0,1-1.57-3.51A4.73,4.73,0,0,1,35,29.65l.76.76a3.68,3.68,0,0,0-1.24,2.64,4.37,4.37,0,0,0,1.23,2.75Z"/></svg>