<svg width="48" height="48" viewBox="0 0 48 48" fill="none" xmlns="http://www.w3.org/2000/svg">
	<path d="M26.0441 27.6014L29.0763 32.8339L40.1477 13.6529L38.0322 12.4258L43.9416 10L44.7737 16.3184L42.6723 15.1055C38.1309 22.9613 33.6036 30.8029 29.0763 38.6587L24.3657 30.5068L26.0441 27.6014ZM5.67834 16.6146L4 13.7093H18.0191L23.1105 22.51L21.4322 25.4294L16.3407 16.6146C12.7866 16.6146 9.23247 16.6146 5.67834 16.6146Z" fill="#06BFD7"/>
	<path d="M18.4135 32.8339C20.7829 28.7297 23.1523 24.6255 25.5217 20.5213L27.5668 16.9813L25.4512 15.7684L31.3465 13.3285L32.1928 19.661L30.0772 18.434C26.1846 25.1756 22.292 31.9171 18.4135 38.6587L6.3125 17.7147H9.66918L18.4135 32.8339Z" fill="black"/>
</svg>
