<?xml version="1.0" encoding="UTF-8" standalone="no"?>
<!DOCTYPE svg PUBLIC "-//W3C//DTD SVG 1.1//EN" "http://www.w3.org/Graphics/SVG/1.1/DTD/svg11.dtd">
<svg viewBox="0 0 48 48" version="1.1" xmlns="http://www.w3.org/2000/svg" xmlns:xlink="http://www.w3.org/1999/xlink" xml:space="preserve" xmlns:serif="http://www.serif.com/" style="fill-rule:evenodd;clip-rule:evenodd;stroke-miterlimit:3.3;">
    <path id="path121" d="M28.167,45.27C28.167,45.171 23.937,41.715 23.878,41.706C22.12,41.461 20.686,41.633 20.686,41.633L20.686,25.348L27.314,25.348L27.328,28.537C27.423,28.501 29.226,28.685 29.518,28.404L29.474,25.348C29.474,25.348 36.474,25.528 36.23,25.357C36.12,25.28 36.196,28.863 36.192,28.941C36.16,29.539 38.171,29.21 38.244,29.127C38.257,29.112 38.099,25.219 38.372,25.311L44.89,25.348L44.847,31.874C44.941,31.779 47.824,31.849 47.958,31.849L48.001,12.229L0,12.229L0,40.658C0,43.28 2.145,45.426 4.768,45.426L28.167,45.27ZM38.261,15.691L44.889,15.691L44.889,22.319L38.261,22.319L38.261,15.691ZM29.473,15.691L36.101,15.691L36.101,22.319L29.473,22.319L29.473,15.691ZM20.686,15.691L27.314,15.691L27.314,22.319L20.686,22.319L20.686,15.691ZM9.739,41.633L3.111,41.633L3.111,35.005L9.739,35.005L9.739,41.633ZM9.739,31.976L3.111,31.976L3.111,25.348L9.739,25.348L9.739,31.976ZM9.739,22.319L3.111,22.319L3.111,15.691L9.739,15.691L9.739,22.319ZM17.131,41.634L11.898,41.633L11.898,35.005L17.2,34.982L17.131,41.634ZM18.526,31.976L11.898,31.976L11.898,25.348L18.526,25.348L18.526,31.976ZM18.526,22.319L11.898,22.319L11.898,15.691L18.526,15.691L18.526,22.319Z" style="fill:rgb(224,224,224);fill-rule:nonzero;"/>
    <path id="path123" d="M48,5.431C48,2.809 45.855,0.663 43.232,0.663L4.768,0.663C2.145,0.664 0,2.809 0,5.431L0,12.229L48,12.229L48,5.431Z" style="fill:rgb(51,103,146);fill-rule:nonzero;"/>
    <rect id="rect125" x="3.111" y="15.691" width="6.628" height="6.628" style="fill:rgb(188,188,188);"/>
    <rect id="rect127" x="11.898" y="15.691" width="6.628" height="6.628" style="fill:rgb(188,188,188);"/>
    <rect id="rect129" x="20.686" y="15.691" width="6.628" height="6.628" style="fill:rgb(188,188,188);"/>
    <rect id="rect131" x="29.473" y="15.691" width="6.628" height="6.628" style="fill:rgb(188,188,188);"/>
    <rect id="rect135" x="3.111" y="25.348" width="6.628" height="6.628" style="fill:rgb(188,188,188);"/>
    <rect id="rect137" x="11.898" y="25.348" width="6.628" height="6.628" style="fill:rgb(188,188,188);"/>
    <path id="path139" d="M20.686,25.348L20.651,31.335L22.763,31.294C22.666,31.363 27.358,27.885 27.335,27.927L27.314,25.348L20.686,25.348Z" style="fill:rgb(188,188,188);fill-rule:nonzero;"/>
    <rect id="rect145" x="3.111" y="35.005" width="6.628" height="6.628" style="fill:rgb(188,188,188);"/>
    <g id="rect147" transform="matrix(0.729626,0,0,1,3.21691,0)">
        <rect x="11.898" y="35.005" width="6.628" height="6.628" style="fill:rgb(188,188,188);"/>
    </g>
    <path id="path151" d="M6.531,8.615L6.319,8.615C5.339,8.615 4.538,7.813 4.538,6.834L4.538,6.622C4.538,5.642 5.34,4.841 6.319,4.841L6.531,4.841C7.511,4.841 8.312,5.643 8.312,6.622L8.312,6.834C8.312,7.813 7.51,8.615 6.531,8.615Z" style="fill:white;fill-rule:nonzero;"/>
    <path id="path153" d="M41.681,8.615L41.469,8.615C40.489,8.615 39.688,7.813 39.688,6.834L39.688,6.622C39.688,5.642 40.49,4.841 41.469,4.841L41.681,4.841C42.661,4.841 43.462,5.643 43.462,6.622L43.462,6.834C43.462,7.813 42.661,8.615 41.681,8.615Z" style="fill:white;fill-rule:nonzero;"/>
    <g id="rect1390" transform="matrix(1,0,0,0.484502,0,13.0668)">
        <rect x="29.518" y="25.348" width="6.628" height="6.628" style="fill:rgb(188,188,188);"/>
    </g>
    <rect id="rect1392" x="38.261" y="15.691" width="6.628" height="6.628" style="fill:rgb(211,66,49);"/>
    <path id="rect1403" d="M44.89,25.348L38.262,25.348L38.262,28.897L41.186,31.976L44.89,31.976L44.89,25.348Z" style="fill:rgb(211,66,49);"/>
    <g transform="matrix(0.984915,0,0,0.984915,-0.580259,1.30318)">
        <g id="g2087">
            <g id="g2074">
                <path id="path2066" d="M29.649,27.754C28.928,27.775 28.199,27.735 27.483,27.794C26.753,28.167 26.235,28.839 25.632,29.378C25.154,29.888 24.586,30.337 24.164,30.887C24.13,34.328 24.159,37.782 24.149,41.229C24.222,41.617 24.729,41.398 25.007,41.455C25.338,41.48 25.528,41.871 25.801,42.048C27.086,43.17 28.29,44.393 29.654,45.421C30.859,46.233 32.586,45.882 33.545,44.841C34.118,45.328 34.738,45.961 35.562,45.859C36.182,45.845 36.688,45.444 37.049,44.971C37.464,44.498 37.851,44.003 38.251,43.518C38.892,44.155 40.052,44.117 40.634,43.419C41.071,42.929 41.566,42.358 41.476,41.65C41.49,40.862 40.717,40.43 40.208,39.961C38.143,38.281 36.072,36.609 34.007,34.93C33.666,34.805 33.475,35.269 33.216,35.423C32.489,36.087 31.733,36.872 30.695,36.971C29.109,37.24 27.419,36.078 27.16,34.476C26.918,33.313 27.388,32.079 28.31,31.345C29.482,30.244 30.69,29.182 31.862,28.08C32.077,27.667 31.472,27.723 31.225,27.741C30.699,27.745 30.174,27.749 29.649,27.754L29.649,27.754Z" style="fill:white;fill-rule:nonzero;stroke:white;stroke-width:2.17px;"/>
                <path id="path2068" d="M35.328,27.749C34.714,27.786 33.983,27.679 33.518,28.181C31.947,29.543 30.405,30.942 28.914,32.392C28.519,32.759 28.198,33.248 28.245,33.809C28.18,34.794 28.982,35.706 29.96,35.794C30.608,35.908 31.282,35.687 31.727,35.201C32.989,34.107 34.179,32.923 35.463,31.864C35.874,31.67 36.337,32.066 36.228,32.495C36.084,32.903 35.668,33.13 35.38,33.438C35.215,33.654 34.733,33.861 34.948,34.182C37.234,36.094 39.563,37.955 41.871,39.84C42.305,40.003 42.187,39.386 42.199,39.133C42.208,36.389 42.217,33.644 42.226,30.9C41.994,30.475 41.545,30.191 41.23,29.821C40.541,29.185 39.951,28.413 39.144,27.921C38.838,27.779 38.473,27.713 38.157,27.835C37.502,27.85 36.791,27.9 36.123,27.791C35.866,27.721 35.59,27.755 35.328,27.749L35.328,27.749ZM38.188,27.943C38.179,27.934 38.22,27.888 38.188,27.943Z" style="fill:white;fill-rule:nonzero;stroke:white;stroke-width:2.17px;"/>
                <path id="path2070" d="M18.302,30.78C18.156,31.224 18.28,31.729 18.239,32.196L18.239,42.695C18.366,43.064 18.864,42.826 19.159,42.889C20.102,42.841 21.064,42.954 21.994,42.771C22.343,42.637 22.644,42.349 22.828,42.028C23.043,41.202 22.941,40.33 22.98,39.484C22.991,36.632 22.995,33.779 23.004,30.926C22.879,30.559 22.381,30.791 22.086,30.726C20.855,30.739 19.613,30.698 18.388,30.746L18.302,30.78ZM20.653,39.966C21.261,39.942 21.358,40.979 20.751,41.062C20.166,41.256 19.815,40.321 20.331,40.046C20.428,39.99 20.541,39.962 20.653,39.966L20.653,39.966Z" style="fill:white;fill-rule:nonzero;stroke:white;stroke-width:2.17px;"/>
                <path id="path2072" d="M43.438,30.764C43.281,31.169 43.414,31.643 43.372,32.075C43.39,35.272 43.373,38.474 43.412,41.668C43.648,42.365 44.322,42.945 45.088,42.879C46.071,42.886 47.065,42.913 48.042,42.871C48.334,42.701 48.13,42.258 48.19,41.973L48.19,30.975C48.064,30.608 47.567,30.839 47.272,30.774C46.022,30.788 44.767,30.745 43.524,30.733L43.472,30.752L43.438,30.764ZM45.781,39.991C46.198,39.912 46.516,40.496 46.253,40.823C46.026,41.251 45.33,41.142 45.239,40.666C45.119,40.352 45.438,39.915 45.781,39.991Z" style="fill:white;fill-rule:nonzero;stroke:white;stroke-width:2.17px;"/>
            </g>
        </g>
    </g>
    <ellipse id="path2089" cx="19.45" cy="40.977" rx="0.385" ry="0.58" style="fill:white;stroke:white;stroke-width:1.57px;"/>
    <ellipse id="ellipse2091" cx="44.915" cy="41.367" rx="0.385" ry="0.58" style="fill:white;stroke:white;stroke-width:1.57px;"/>
    <g id="g1470" transform="matrix(1,0,0,1,-1.09326,0.776251)">
        <path id="path1431" d="M29.649,27.754C28.928,27.775 28.199,27.735 27.483,27.794C26.753,28.167 26.235,28.839 25.632,29.378C25.154,29.888 24.586,30.337 24.164,30.887C24.13,34.328 24.159,37.782 24.149,41.229C24.222,41.617 24.729,41.398 25.007,41.455C25.338,41.48 25.528,41.871 25.801,42.048C27.086,43.17 28.29,44.393 29.654,45.421C30.859,46.233 32.586,45.882 33.545,44.841C34.118,45.328 34.738,45.961 35.562,45.859C36.182,45.845 36.688,45.444 37.049,44.971C37.464,44.498 37.851,44.003 38.251,43.518C38.892,44.155 40.052,44.117 40.634,43.419C41.071,42.929 41.566,42.358 41.476,41.65C41.49,40.862 40.717,40.43 40.208,39.961C38.143,38.281 36.072,36.609 34.007,34.93C33.666,34.805 33.475,35.269 33.216,35.423C32.489,36.087 31.733,36.872 30.695,36.971C29.109,37.24 27.419,36.078 27.16,34.476C26.918,33.313 27.388,32.079 28.31,31.345C29.482,30.244 30.69,29.182 31.862,28.08C32.077,27.667 31.472,27.723 31.225,27.741C30.699,27.745 30.174,27.749 29.649,27.754L29.649,27.754Z" style="fill:rgb(51,103,146);fill-rule:nonzero;"/>
        <path id="path1425" d="M35.328,27.749C34.714,27.786 33.983,27.679 33.518,28.181C31.947,29.543 30.405,30.942 28.914,32.392C28.519,32.759 28.198,33.248 28.245,33.809C28.18,34.794 28.982,35.706 29.96,35.794C30.608,35.908 31.282,35.687 31.727,35.201C32.989,34.107 34.179,32.923 35.463,31.864C35.874,31.67 36.337,32.066 36.228,32.495C36.084,32.903 35.668,33.13 35.38,33.438C35.215,33.654 34.733,33.861 34.948,34.182C37.234,36.094 39.563,37.955 41.871,39.84C42.305,40.003 42.187,39.386 42.199,39.133C42.208,36.389 42.217,33.644 42.226,30.9C41.994,30.475 41.545,30.191 41.23,29.821C40.541,29.185 39.951,28.413 39.144,27.921C38.838,27.779 38.473,27.713 38.157,27.835C37.502,27.85 36.791,27.9 36.123,27.791C35.866,27.721 35.59,27.755 35.328,27.749L35.328,27.749ZM38.188,27.943C38.179,27.934 38.22,27.888 38.188,27.943Z" style="fill:rgb(51,103,146);fill-rule:nonzero;"/>
        <path id="path1429" d="M18.302,30.78C18.156,31.224 18.28,31.729 18.239,32.196L18.239,42.695C18.366,43.064 18.864,42.826 19.159,42.889C20.102,42.841 21.064,42.954 21.994,42.771C22.343,42.637 22.644,42.349 22.828,42.028C23.043,41.202 22.941,40.33 22.98,39.484C22.991,36.632 22.995,33.779 23.004,30.926C22.879,30.559 22.381,30.791 22.086,30.726C20.855,30.739 19.613,30.698 18.388,30.746L18.302,30.78ZM20.653,39.966C21.261,39.942 21.358,40.979 20.751,41.062C20.166,41.256 19.815,40.321 20.331,40.046C20.428,39.99 20.541,39.962 20.653,39.966L20.653,39.966Z" style="fill:rgb(51,103,146);fill-rule:nonzero;"/>
        <path id="path1433" d="M43.438,30.764C43.281,31.169 43.414,31.643 43.372,32.075C43.39,35.272 43.373,38.474 43.412,41.668C43.648,42.365 44.322,42.945 45.088,42.879C46.071,42.886 47.065,42.913 48.042,42.871C48.334,42.701 48.13,42.258 48.19,41.973L48.19,30.975C48.064,30.608 47.567,30.839 47.272,30.774C46.022,30.788 44.767,30.745 43.524,30.733L43.472,30.752L43.438,30.764ZM45.781,39.991C46.198,39.912 46.516,40.496 46.253,40.823C46.026,41.251 45.33,41.142 45.239,40.666C45.119,40.352 45.438,39.915 45.781,39.991Z" style="fill:rgb(51,103,146);fill-rule:nonzero;"/>
    </g>
</svg>
